<mxfile host="app.diagrams.net" modified="2023-08-17T07:44:03.965Z" agent="Mozilla/5.0 (Windows NT 10.0; Win64; x64) AppleWebKit/537.36 (KHTML, like Gecko) Chrome/90.0.4430.72 Safari/537.36" version="21.6.7" etag="mGCT9exWNB7QNq7diR42" type="github">
  <diagram name="第 1 页" id="xdk21dSNZaUXdtdFD7pm">
    <mxGraphModel>
      <root>
        <mxCell id="0" />
        <mxCell id="1" parent="0" />
      </root>
    </mxGraphModel>
  </diagram>
</mxfile>
